<svg width="128" height="128" viewBox="0 0 128 128" fill="none" xmlns="http://www.w3.org/2000/svg">
<rect width="128" height="128" fill="#56C984"/>
<path d="M97.1541 56.1975H31C30.0251 56.1975 29.2127 55.3851 29.2127 54.4103C29.2127 53.4354 30.0251 52.6231 31 52.6231H97.1541C98.1289 52.6231 98.9413 53.4354 98.9413 54.4103C98.9413 55.3851 98.1289 56.1975 97.1541 56.1975Z" fill="#AEF0C8"/>
<path d="M97.1541 64.2129H31C30.0251 64.2129 29.2127 63.4005 29.2127 62.4257C29.2127 61.4508 30.0251 60.6385 31 60.6385H97.1541C98.1289 60.6385 98.9413 61.4508 98.9413 62.4257C98.9413 63.4005 98.1289 64.2129 97.1541 64.2129Z" fill="#AEF0C8"/>
<path d="M59.7578 76.7776H42.5897C40.8296 76.7776 39.3944 75.3424 39.3944 73.5822C39.3944 71.8221 40.8296 70.3869 42.5897 70.3869H59.7578C61.518 70.3869 62.9532 71.8221 62.9532 73.5822C62.9532 75.3153 61.518 76.7776 59.7578 76.7776Z" fill="white"/>
<path d="M86.9724 76.7776H69.8043C68.0441 76.7776 66.6089 75.3424 66.6089 73.5822C66.6089 71.8221 68.0441 70.3869 69.8043 70.3869H86.9724C88.7325 70.3869 90.1677 71.8221 90.1677 73.5822C90.1677 75.3153 88.7325 76.7776 86.9724 76.7776Z" fill="#AEF0C8"/>
<path d="M103.193 22.4299H24.9612C20.5744 22.4299 17 26.0044 17 30.3912V81.9497C17 86.3365 20.5744 89.9109 24.9612 89.9109H103.193C107.579 89.9109 111.154 86.3365 111.154 81.9497V30.3641C111.154 25.9773 107.579 22.4299 103.193 22.4299ZM106.361 72.1741V81.9497C106.361 83.7098 104.926 85.1179 103.193 85.1179H24.9612C23.2011 85.1179 21.793 83.6827 21.793 81.9497V30.3641C21.793 28.6039 23.2282 27.1958 24.9612 27.1958H103.193C104.953 27.1958 106.361 28.631 106.361 30.3641V72.1741Z" fill="white"/>
<path d="M81.6377 108.704C81.394 107.566 80.2567 106.835 79.0923 106.835H75.1117H74.7326V106.456V97.0598V95.5163C74.7326 94.1894 73.6494 93.1333 72.3496 93.1333C71.0498 93.1333 69.9666 94.2165 69.9666 95.5163V100.093C69.9666 100.147 69.9666 100.174 69.9666 100.228V106.483V106.862H69.5875H58.6476H58.2685V106.483V97.0869V95.5434C58.2685 94.2165 57.1853 93.1604 55.8855 93.1604C54.5857 93.1604 53.5026 94.2436 53.5026 95.5434V100.12C53.5026 100.147 53.5026 100.201 53.5026 100.228V106.483V106.862H53.1235H49.1429C47.9785 106.862 46.8411 107.594 46.5974 108.731C46.2725 110.274 47.4369 111.655 48.9262 111.655H79.3631C80.7983 111.628 81.9627 110.247 81.6377 108.704Z" fill="white"/>
</svg>
